Coordinates
version=1
nRows=13
nColumns=40
inDegrees=yes

Units are S.I. units (second, meters, Newtons, ...)
If the header above contains a line with 'inDegrees', this indicates whether rotational values are in degrees (yes) or radians (no).

endheader
time	pelvis_tilt	pelvis_list	pelvis_rotation	pelvis_tx	pelvis_ty	pelvis_tz	hip_flexion_r	hip_adduction_r	hip_rotation_r	knee_angle_r	knee_angle_r_beta	ankle_angle_r	subtalar_angle_r	mtp_angle_r	hip_flexion_l	hip_adduction_l	hip_rotation_l	knee_angle_l	knee_angle_l_beta	ankle_angle_l	subtalar_angle_l	mtp_angle_l	lumbar_extension	lumbar_bending	lumbar_rotation	arm_flex_r	arm_add_r	arm_rot_r	elbow_flex_r	pro_sup_r	wrist_flex_r	wrist_dev_r	arm_flex_l	arm_add_l	arm_rot_l	elbow_flex_l	pro_sup_l	wrist_flex_l	wrist_dev_l
      2.33500000	    -46.51429486	     -3.40756089	      1.01691384	     -0.39440466	      0.58455416	     -0.90822629	    111.35044424	    -24.69319327	     -6.00811146	     96.36957020	      1.68196630	     28.55817809	      0.00000000	      0.00000000	    115.17735123	    -22.04116867	      0.32292230	     98.00411596	      1.71049450	     30.10179521	      0.00000000	      0.00000000	    -10.73586167	      2.98358213	     -5.23700810	    -41.44672163	    -30.90814560	     -1.41881111	    118.58730682	     87.92378228	      0.00000000	      0.00000000	    -46.70985195	    -28.92572628	     -3.07601582	    114.66491014	     88.11687975	      0.00000000	      0.00000000
      2.34000000	    -46.62160276	     -3.38287591	      0.82552271	     -0.39453075	      0.58455104	     -0.90756821	    111.41590709	    -24.41309705	     -6.05637171	     96.29996138	      1.68075140	     28.52727746	      0.00000000	      0.00000000	    115.31805210	    -22.27224608	      0.38871074	     97.99502324	      1.71033581	     30.02521252	      0.00000000	      0.00000000	    -10.62924870	      2.90078056	     -5.02807444	    -41.41768467	    -30.88744513	     -1.28236895	    118.56408097	     87.77010050	      0.00000000	      0.00000000	    -46.64457100	    -29.01807412	     -2.98054905	    114.61401168	     88.14400702	      0.00000000	      0.00000000
      2.34500000	    -45.92272463	     -3.25511175	      0.82551600	     -0.39290964	      0.58564395	     -0.90744281	    110.67545055	    -24.45578116	     -6.03258356	     96.44894944	      1.68335173	     28.59433662	      0.00000000	      0.00000000	    114.47991945	    -22.53860859	      0.15081234	     98.16788280	      1.71335277	     30.14987181	      0.00000000	      0.00000000	    -11.42502326	      2.75417269	     -4.96669509	    -41.26801410	    -30.76614178	     -1.33563279	    118.42759870	     87.88068869	      0.00000000	      0.00000000	    -46.43778408	    -29.05543270	     -2.96368813	    114.48354002	     88.15238699	      0.00000000	      0.00000000
      2.35000000	    -46.44650805	     -3.38249705	      0.88901642	     -0.39410429	      0.58477806	     -0.90741825	    111.24144996	    -24.47585785	     -6.05018708	     96.37285031	      1.68202355	     28.53294530	      0.00000000	      0.00000000	    115.12003013	    -22.25841559	      0.38252745	     98.01242362	      1.71063950	     30.03521428	      0.00000000	      0.00000000	    -10.85200804	      2.88976862	     -5.09257449	    -41.37631273	    -30.92072739	     -1.32196122	    118.55934869	     87.78088684	      0.00000000	      0.00000000	    -46.66688697	    -28.95875175	     -3.10695738	    114.65810213	     88.21631901	      0.00000000	      0.00000000
      2.35500000	    -46.37716121	     -3.44119131	      0.90764065	     -0.39383529	      0.58487188	     -0.90726674	    111.11927711	    -24.50002304	     -6.13514487	     96.40023097	      1.68250143	     28.60187021	      0.00000000	      0.00000000	    115.06526807	    -22.28557595	      0.39242866	     98.02985183	      1.71094368	     30.08433660	      0.00000000	      0.00000000	    -10.93365983	      2.96257458	     -4.97099056	    -41.50494078	    -30.78545647	     -1.47505875	    118.56517699	     87.89404149	      0.00000000	      0.00000000	    -46.51442391	    -29.04725381	     -2.97009838	    114.61052399	     88.15069982	      0.00000000	      0.00000000
      2.36000000	    -46.35719816	     -3.30577828	      1.16083657	     -0.39373652	      0.58487263	     -0.90787468	    111.24117284	    -24.72547687	     -5.78786063	     96.47527565	      1.68381121	     28.59708941	      0.00000000	      0.00000000	    114.89617906	    -22.08713902	      0.05791543	     97.99631275	      1.71035831	     30.02398852	      0.00000000	      0.00000000	    -10.95486680	      2.87708491	     -5.14807010	    -41.62052251	    -30.72269517	     -1.65211350	    118.59798529	     87.87047438	      0.00000000	      0.00000000	    -46.42635251	    -29.11747935	     -2.95760973	    114.61186955	     88.22423056	      0.00000000	      0.00000000
      2.36500000	    -45.81318307	     -3.40784407	      1.00945716	     -0.39230356	      0.58579018	     -0.90720409	    110.44683303	    -24.65683508	     -6.16487136	     96.54008262	      1.68494230	     28.77664409	      0.00000000	      0.00000000	    114.38503480	    -22.39583828	      0.22656737	     98.15743275	      1.71317039	     30.15495238	      0.00000000	      0.00000000	    -11.55570671	      2.93831484	     -4.97843644	    -41.38069669	    -30.77379034	     -1.44911905	    118.42927994	     87.93976579	      0.00000000	      0.00000000	    -46.27794468	    -29.11272604	     -2.84631980	    114.46063068	     88.11385803	      0.00000000	      0.00000000
      2.37000000	    -46.44771855	     -3.44526960	      1.06965527	     -0.39378130	      0.58479870	     -0.90722261	    111.19717155	    -24.60752685	     -6.02800014	     96.43699731	      1.68314312	     28.75111835	      0.00000000	      0.00000000	    115.06807877	    -22.13412772	      0.31462311	     97.96005832	      1.70972555	     30.22792261	      0.00000000	      0.00000000	    -10.86145863	      2.98229643	     -5.09428227	    -41.51902986	    -30.86472041	     -1.45083570	    118.56588901	     87.87585188	      0.00000000	      0.00000000	    -46.46516246	    -29.05133081	     -2.96094104	    114.56169590	     88.12396247	      0.00000000	      0.00000000
      2.37500000	    -46.32351810	     -3.55931564	      1.30358019	     -0.39337923	      0.58496584	     -0.90759189	    111.04130844	    -24.91594052	     -6.10088974	     96.51970786	      1.68458670	     28.74562430	      0.00000000	      0.00000000	    114.94476545	    -21.88293185	      0.33340251	     97.97478405	      1.70998257	     30.11668082	      0.00000000	      0.00000000	    -10.99061170	      3.16295722	     -5.22445961	    -41.58722516	    -30.86037895	     -1.54720741	    118.58058008	     87.85692806	      0.00000000	      0.00000000	    -46.33480215	    -29.08160846	     -2.85048042	    114.50729565	     88.16310254	      0.00000000	      0.00000000
      2.38000000	    -46.28899275	     -3.59476402	      1.48864261	     -0.39322520	      0.58502932	     -0.90797381	    111.00411604	    -25.14122064	     -6.06625452	     96.56498980	      1.68537701	     28.78148081	      0.00000000	      0.00000000	    114.89368097	    -21.67545286	      0.29457135	     97.97868302	      1.71005062	     30.02096725	      0.00000000	      0.00000000	    -11.01600254	      3.25261278	     -5.42422242	    -41.55482164	    -30.94166936	     -1.52928141	    118.59157217	     87.85484638	      0.00000000	      0.00000000	    -46.33543217	    -28.97664222	     -2.88239238	    114.49385194	     88.15965868	      0.00000000	      0.00000000
      2.38500000	    -46.27952462	     -3.53215037	      1.55334440	     -0.39311497	      0.58508040	     -0.90806822	    111.04239827	    -25.20274264	     -5.97995047	     96.57538843	      1.68555850	     28.71159725	      0.00000000	      0.00000000	    114.80881947	    -21.63260100	      0.18671853	     97.93131621	      1.70922391	     30.09130831	      0.00000000	      0.00000000	    -11.03942353	      3.19095049	     -5.53712178	    -41.47430619	    -31.00370439	     -1.48405588	    118.52740242	     87.85092209	      0.00000000	      0.00000000	    -46.39348689	    -28.87590076	     -2.98032418	    114.49523994	     88.16906642	      0.00000000	      0.00000000
      2.39000000	    -46.25751263	     -3.53964637	      1.52043148	     -0.39300856	      0.58514781	     -0.90782529	    110.98717403	    -25.14092516	     -6.00007080	     96.58385388	      1.68570625	     28.80190865	      0.00000000	      0.00000000	    114.79212549	    -21.68405710	      0.22143115	     97.93958168	      1.70936817	     30.10362894	      0.00000000	      0.00000000	    -11.06645858	      3.19043793	     -5.46486733	    -41.47960306	    -30.99244712	     -1.49353454	    118.52971590	     87.91066185	      0.00000000	      0.00000000	    -46.33679716	    -28.93467057	     -2.90686255	    114.46634543	     88.12155119	      0.00000000	      0.00000000
      2.39500000	    -46.15605897	     -3.59220123	      1.56018731	     -0.39263990	      0.58531784	     -0.90777462	    110.82926423	    -25.18701916	     -6.05094749	     96.62259975	      1.68638250	     28.89272851	      0.00000000	      0.00000000	    114.70136226	    -21.67548601	      0.25082953	     97.96521508	      1.70981556	     30.07914545	      0.00000000	      0.00000000	    -11.17907797	      3.26107133	     -5.39349713	    -41.59091505	    -30.89128337	     -1.67501913	    118.53234038	     87.94951551	      0.00000000	      0.00000000	    -46.20188181	    -28.99634160	     -2.78808914	    114.39945647	     88.09676345	      0.00000000	      0.00000000
